<mxfile host="app.diagrams.net" modified="2024-06-15T11:50:02.959Z" agent="Mozilla/5.0 (Windows NT 10.0; Win64; x64) AppleWebKit/537.36 (KHTML, like Gecko) Chrome/126.0.0.0 Safari/537.36" etag="j4dcmNJMCg0iGvdxtYiK" version="24.5.4" type="device">
  <diagram name="Страница — 1" id="-3xV7_Gbp0Nz1KkpgJD-">
    <mxGraphModel dx="739" dy="1921" grid="1" gridSize="10" guides="1" tooltips="1" connect="1" arrows="1" fold="1" page="1" pageScale="1" pageWidth="827" pageHeight="1169" math="0" shadow="0">
      <root>
        <mxCell id="0" />
        <mxCell id="1" parent="0" />
        <mxCell id="PvBHLQsCNpEfYuZkWa_C-8" value="EventCreator" style="swimlane;childLayout=stackLayout;horizontal=1;startSize=50;horizontalStack=0;rounded=1;fontSize=14;fontStyle=0;strokeWidth=2;resizeParent=0;resizeLast=1;shadow=0;dashed=0;align=center;arcSize=4;whiteSpace=wrap;html=1;" parent="1" vertex="1">
          <mxGeometry x="440" y="200" width="200" height="140" as="geometry" />
        </mxCell>
        <mxCell id="PvBHLQsCNpEfYuZkWa_C-9" value="&lt;div&gt;&lt;span style=&quot;background-color: rgb(230, 255, 204);&quot;&gt;-created_events&lt;/span&gt;&lt;/div&gt;&lt;div&gt;+create_event()&lt;/div&gt;&lt;div&gt;+cancel_event()&lt;/div&gt;&lt;div&gt;+invite_to_event()&lt;/div&gt;&lt;div&gt;+delete_account()&lt;/div&gt;" style="align=left;strokeColor=none;fillColor=none;spacingLeft=4;fontSize=12;verticalAlign=top;resizable=0;rotatable=0;part=1;html=1;" parent="PvBHLQsCNpEfYuZkWa_C-8" vertex="1">
          <mxGeometry y="50" width="200" height="90" as="geometry" />
        </mxCell>
        <mxCell id="PvBHLQsCNpEfYuZkWa_C-10" value="Event" style="swimlane;childLayout=stackLayout;horizontal=1;startSize=50;horizontalStack=0;rounded=1;fontSize=14;fontStyle=0;strokeWidth=2;resizeParent=0;resizeLast=1;shadow=0;dashed=0;align=center;arcSize=4;whiteSpace=wrap;html=1;" parent="1" vertex="1">
          <mxGeometry x="250" y="490" width="280" height="240" as="geometry" />
        </mxCell>
        <mxCell id="PvBHLQsCNpEfYuZkWa_C-11" value="&lt;span style=&quot;background-color: rgb(230, 255, 204);&quot;&gt;-event_name&lt;/span&gt;&lt;div&gt;&lt;span style=&quot;background-color: rgb(230, 255, 204);&quot;&gt;-event_type &lt;/span&gt;= EventType&lt;/div&gt;&lt;div&gt;&lt;span style=&quot;background-color: rgb(230, 255, 204);&quot;&gt;-date_start&lt;/span&gt;&lt;/div&gt;&lt;div&gt;&lt;span style=&quot;background-color: rgb(230, 255, 204);&quot;&gt;-date_end&lt;/span&gt;&lt;/div&gt;&lt;div&gt;&lt;span style=&quot;background-color: rgb(230, 255, 204);&quot;&gt;-time_start&lt;/span&gt;&lt;/div&gt;&lt;div&gt;&lt;span style=&quot;background-color: rgb(230, 255, 204);&quot;&gt;-time_end&lt;/span&gt;&lt;/div&gt;&lt;div&gt;&lt;span style=&quot;background-color: rgb(230, 255, 204);&quot;&gt;-entry_price&lt;/span&gt;&lt;/div&gt;&lt;div&gt;&lt;span style=&quot;background-color: rgb(230, 255, 204);&quot;&gt;-location&lt;/span&gt;&lt;/div&gt;&lt;div&gt;&lt;span style=&quot;background-color: rgb(230, 255, 204);&quot;&gt;-description&lt;/span&gt;&lt;/div&gt;&lt;div&gt;&lt;span style=&quot;background-color: rgb(230, 255, 204);&quot;&gt;-event_creato&lt;/span&gt;r&lt;/div&gt;&lt;div&gt;&lt;span style=&quot;background-color: rgb(255, 204, 204);&quot;&gt;-event_id&lt;/span&gt;&lt;/div&gt;&lt;div&gt;+show_guests()&lt;/div&gt;&lt;div&gt;&lt;br&gt;&lt;/div&gt;" style="align=left;strokeColor=none;fillColor=none;spacingLeft=4;fontSize=12;verticalAlign=top;resizable=0;rotatable=0;part=1;html=1;" parent="PvBHLQsCNpEfYuZkWa_C-10" vertex="1">
          <mxGeometry y="50" width="280" height="190" as="geometry" />
        </mxCell>
        <mxCell id="PvBHLQsCNpEfYuZkWa_C-66" value="" style="ellipse;whiteSpace=wrap;html=1;" parent="PvBHLQsCNpEfYuZkWa_C-10" vertex="1">
          <mxGeometry y="240" width="280" as="geometry" />
        </mxCell>
        <mxCell id="PvBHLQsCNpEfYuZkWa_C-14" value="+create_event()&lt;div&gt;+cancel_event()&lt;/div&gt;&lt;div&gt;+invite_to_event()&lt;/div&gt;" style="text;html=1;align=center;verticalAlign=middle;resizable=0;points=[];autosize=1;strokeColor=none;fillColor=none;" parent="1" vertex="1">
          <mxGeometry x="430" y="350" width="120" height="60" as="geometry" />
        </mxCell>
        <mxCell id="PvBHLQsCNpEfYuZkWa_C-15" value="EventGuest" style="swimlane;childLayout=stackLayout;horizontal=1;startSize=50;horizontalStack=0;rounded=1;fontSize=14;fontStyle=0;strokeWidth=2;resizeParent=0;resizeLast=1;shadow=0;dashed=0;align=center;arcSize=4;whiteSpace=wrap;html=1;" parent="1" vertex="1">
          <mxGeometry x="170" y="210" width="160" height="120" as="geometry" />
        </mxCell>
        <mxCell id="PvBHLQsCNpEfYuZkWa_C-16" value="&lt;div&gt;&lt;span style=&quot;background-color: rgb(230, 255, 204);&quot;&gt;-booked_tickets&lt;/span&gt;&lt;/div&gt;+book_ticket()&lt;div&gt;+return_ticket()&lt;/div&gt;" style="align=left;strokeColor=none;fillColor=none;spacingLeft=4;fontSize=12;verticalAlign=top;resizable=0;rotatable=0;part=1;html=1;" parent="PvBHLQsCNpEfYuZkWa_C-15" vertex="1">
          <mxGeometry y="50" width="160" height="70" as="geometry" />
        </mxCell>
        <mxCell id="PvBHLQsCNpEfYuZkWa_C-23" value="User" style="swimlane;childLayout=stackLayout;horizontal=1;startSize=50;horizontalStack=0;rounded=1;fontSize=14;fontStyle=0;strokeWidth=2;resizeParent=0;resizeLast=1;shadow=0;dashed=0;align=center;arcSize=4;whiteSpace=wrap;html=1;" parent="1" vertex="1">
          <mxGeometry x="314" width="186" height="150" as="geometry" />
        </mxCell>
        <mxCell id="PvBHLQsCNpEfYuZkWa_C-24" value="&lt;span style=&quot;background-color: rgb(230, 255, 204);&quot;&gt;-first_name&lt;/span&gt;&lt;div&gt;&lt;span style=&quot;background-color: rgb(230, 255, 204);&quot;&gt;-last_name&lt;/span&gt;&lt;/div&gt;&lt;div&gt;&lt;span style=&quot;background-color: rgb(230, 255, 204);&quot;&gt;-email_addr&lt;br&gt;&lt;/span&gt;&lt;div&gt;&lt;span style=&quot;background-color: rgb(230, 255, 204);&quot;&gt;-user_type_key&lt;/span&gt;&lt;/div&gt;&lt;div&gt;&lt;span style=&quot;background-color: rgb(255, 204, 204);&quot;&gt;-password&lt;/span&gt;&lt;/div&gt;&lt;div&gt;&lt;span style=&quot;background-color: rgb(255, 204, 204);&quot;&gt;-id&lt;/span&gt;&lt;/div&gt;&lt;/div&gt;" style="align=left;strokeColor=none;fillColor=none;spacingLeft=4;fontSize=12;verticalAlign=top;resizable=0;rotatable=0;part=1;html=1;" parent="PvBHLQsCNpEfYuZkWa_C-23" vertex="1">
          <mxGeometry y="50" width="186" height="100" as="geometry" />
        </mxCell>
        <mxCell id="PvBHLQsCNpEfYuZkWa_C-26" style="edgeStyle=orthogonalEdgeStyle;rounded=0;orthogonalLoop=1;jettySize=auto;html=1;exitX=0.25;exitY=1;exitDx=0;exitDy=0;entryX=0.5;entryY=0;entryDx=0;entryDy=0;" parent="1" source="PvBHLQsCNpEfYuZkWa_C-24" target="PvBHLQsCNpEfYuZkWa_C-15" edge="1">
          <mxGeometry relative="1" as="geometry" />
        </mxCell>
        <mxCell id="PvBHLQsCNpEfYuZkWa_C-27" style="edgeStyle=orthogonalEdgeStyle;rounded=0;orthogonalLoop=1;jettySize=auto;html=1;exitX=0.75;exitY=1;exitDx=0;exitDy=0;entryX=0.5;entryY=0;entryDx=0;entryDy=0;" parent="1" source="PvBHLQsCNpEfYuZkWa_C-24" target="PvBHLQsCNpEfYuZkWa_C-8" edge="1">
          <mxGeometry relative="1" as="geometry" />
        </mxCell>
        <mxCell id="PvBHLQsCNpEfYuZkWa_C-29" style="edgeStyle=orthogonalEdgeStyle;rounded=0;orthogonalLoop=1;jettySize=auto;html=1;exitX=0.5;exitY=1;exitDx=0;exitDy=0;entryX=0.75;entryY=0;entryDx=0;entryDy=0;" parent="1" source="PvBHLQsCNpEfYuZkWa_C-9" target="PvBHLQsCNpEfYuZkWa_C-10" edge="1">
          <mxGeometry relative="1" as="geometry" />
        </mxCell>
        <mxCell id="PvBHLQsCNpEfYuZkWa_C-40" value="EventType" style="swimlane;childLayout=stackLayout;horizontal=1;startSize=50;horizontalStack=0;rounded=1;fontSize=14;fontStyle=0;strokeWidth=2;resizeParent=0;resizeLast=1;shadow=0;dashed=0;align=center;arcSize=4;whiteSpace=wrap;html=1;" parent="1" vertex="1">
          <mxGeometry x="640" y="490" width="160" height="100" as="geometry" />
        </mxCell>
        <mxCell id="PvBHLQsCNpEfYuZkWa_C-41" value="&lt;span style=&quot;background-color: rgb(230, 255, 204);&quot;&gt;-event_type_name&lt;/span&gt;&lt;div&gt;&lt;span style=&quot;background-color: rgb(255, 204, 204);&quot;&gt;-event_type_key&lt;/span&gt;&lt;/div&gt;" style="align=left;strokeColor=none;fillColor=none;spacingLeft=4;fontSize=12;verticalAlign=top;resizable=0;rotatable=0;part=1;html=1;" parent="PvBHLQsCNpEfYuZkWa_C-40" vertex="1">
          <mxGeometry y="50" width="160" height="50" as="geometry" />
        </mxCell>
        <mxCell id="PvBHLQsCNpEfYuZkWa_C-43" value="" style="endArrow=none;html=1;rounded=0;entryX=0;entryY=0;entryDx=0;entryDy=0;exitX=1;exitY=0;exitDx=0;exitDy=0;" parent="1" source="PvBHLQsCNpEfYuZkWa_C-11" target="PvBHLQsCNpEfYuZkWa_C-41" edge="1">
          <mxGeometry relative="1" as="geometry">
            <mxPoint x="410" y="550" as="sourcePoint" />
            <mxPoint x="570" y="550" as="targetPoint" />
          </mxGeometry>
        </mxCell>
        <mxCell id="PvBHLQsCNpEfYuZkWa_C-45" value="Ticket" style="swimlane;childLayout=stackLayout;horizontal=1;startSize=50;horizontalStack=0;rounded=1;fontSize=14;fontStyle=0;strokeWidth=2;resizeParent=0;resizeLast=1;shadow=0;dashed=0;align=center;arcSize=4;whiteSpace=wrap;html=1;" parent="1" vertex="1">
          <mxGeometry x="30" y="390" width="160" height="170" as="geometry" />
        </mxCell>
        <mxCell id="PvBHLQsCNpEfYuZkWa_C-46" value="&lt;div&gt;&lt;span style=&quot;background-color: rgb(230, 255, 204);&quot;&gt;-event_link&lt;/span&gt;&lt;/div&gt;&lt;div&gt;&lt;span style=&quot;background-color: rgb(230, 255, 204);&quot;&gt;-price&lt;/span&gt;&lt;/div&gt;&lt;span style=&quot;background-color: rgb(230, 255, 204);&quot;&gt;-date_start&lt;/span&gt;&lt;div&gt;&lt;span style=&quot;background-color: rgb(230, 255, 204);&quot;&gt;-date_end&lt;/span&gt;&lt;/div&gt;&lt;div&gt;&lt;span style=&quot;background-color: rgb(230, 255, 204);&quot;&gt;-time_start&lt;/span&gt;&lt;/div&gt;&lt;div&gt;&lt;span style=&quot;background-color: rgb(230, 255, 204);&quot;&gt;-time_end&lt;/span&gt;&lt;/div&gt;&lt;div&gt;&lt;span style=&quot;background-color: rgb(255, 204, 204);&quot;&gt;-ticket_id&lt;/span&gt;&lt;/div&gt;" style="align=left;strokeColor=none;fillColor=none;spacingLeft=4;fontSize=12;verticalAlign=top;resizable=0;rotatable=0;part=1;html=1;" parent="PvBHLQsCNpEfYuZkWa_C-45" vertex="1">
          <mxGeometry y="50" width="160" height="120" as="geometry" />
        </mxCell>
        <mxCell id="PvBHLQsCNpEfYuZkWa_C-48" style="edgeStyle=orthogonalEdgeStyle;rounded=0;orthogonalLoop=1;jettySize=auto;html=1;exitX=0.25;exitY=1;exitDx=0;exitDy=0;entryX=0.25;entryY=0;entryDx=0;entryDy=0;" parent="1" source="PvBHLQsCNpEfYuZkWa_C-16" target="PvBHLQsCNpEfYuZkWa_C-45" edge="1">
          <mxGeometry relative="1" as="geometry" />
        </mxCell>
        <mxCell id="PvBHLQsCNpEfYuZkWa_C-49" value="+book_ticket()&lt;div&gt;+return_ticket()&lt;/div&gt;" style="text;html=1;align=center;verticalAlign=middle;resizable=0;points=[];autosize=1;strokeColor=none;fillColor=none;" parent="1" vertex="1">
          <mxGeometry x="80" y="320" width="100" height="40" as="geometry" />
        </mxCell>
        <mxCell id="PvBHLQsCNpEfYuZkWa_C-51" style="edgeStyle=orthogonalEdgeStyle;rounded=0;orthogonalLoop=1;jettySize=auto;html=1;exitX=0;exitY=0.5;exitDx=0;exitDy=0;entryX=0.5;entryY=1;entryDx=0;entryDy=0;" parent="1" source="PvBHLQsCNpEfYuZkWa_C-11" target="PvBHLQsCNpEfYuZkWa_C-46" edge="1">
          <mxGeometry relative="1" as="geometry" />
        </mxCell>
        <mxCell id="PvBHLQsCNpEfYuZkWa_C-52" value="-date_start&lt;div&gt;-date_end&lt;/div&gt;&lt;div&gt;-time_start&lt;/div&gt;&lt;div&gt;-time_end&lt;/div&gt;" style="text;html=1;align=center;verticalAlign=middle;resizable=0;points=[];autosize=1;strokeColor=none;fillColor=none;" parent="1" vertex="1">
          <mxGeometry x="120" y="630" width="80" height="70" as="geometry" />
        </mxCell>
        <mxCell id="PvBHLQsCNpEfYuZkWa_C-53" style="edgeStyle=orthogonalEdgeStyle;rounded=0;orthogonalLoop=1;jettySize=auto;html=1;exitX=0.75;exitY=1;exitDx=0;exitDy=0;entryX=0.75;entryY=0;entryDx=0;entryDy=0;" parent="1" source="PvBHLQsCNpEfYuZkWa_C-9" target="PvBHLQsCNpEfYuZkWa_C-10" edge="1">
          <mxGeometry relative="1" as="geometry" />
        </mxCell>
        <mxCell id="PvBHLQsCNpEfYuZkWa_C-54" value="-first_name&lt;div&gt;-last_name&lt;/div&gt;&lt;div&gt;-third_name&lt;/div&gt;" style="text;html=1;align=center;verticalAlign=middle;resizable=0;points=[];autosize=1;strokeColor=none;fillColor=none;" parent="1" vertex="1">
          <mxGeometry x="580" y="350" width="90" height="60" as="geometry" />
        </mxCell>
        <mxCell id="PvBHLQsCNpEfYuZkWa_C-55" value="GuestList" style="swimlane;fontStyle=0;childLayout=stackLayout;horizontal=1;startSize=30;horizontalStack=0;resizeParent=1;resizeParentMax=0;resizeLast=0;collapsible=1;marginBottom=0;whiteSpace=wrap;html=1;" parent="1" vertex="1">
          <mxGeometry x="320" y="790" width="140" height="70" as="geometry" />
        </mxCell>
        <mxCell id="PvBHLQsCNpEfYuZkWa_C-57" value="&lt;span style=&quot;background-color: rgb(255, 204, 204);&quot;&gt;-guest_ticket_id&lt;/span&gt;&lt;div&gt;&lt;span style=&quot;background-color: rgb(230, 255, 204);&quot;&gt;-guest_credentials&lt;/span&gt;&lt;/div&gt;" style="text;strokeColor=none;fillColor=none;align=left;verticalAlign=middle;spacingLeft=4;spacingRight=4;overflow=hidden;points=[[0,0.5],[1,0.5]];portConstraint=eastwest;rotatable=0;whiteSpace=wrap;html=1;" parent="PvBHLQsCNpEfYuZkWa_C-55" vertex="1">
          <mxGeometry y="30" width="140" height="40" as="geometry" />
        </mxCell>
        <mxCell id="PvBHLQsCNpEfYuZkWa_C-59" style="edgeStyle=orthogonalEdgeStyle;rounded=0;orthogonalLoop=1;jettySize=auto;html=1;exitX=0.5;exitY=1;exitDx=0;exitDy=0;entryX=0.5;entryY=0;entryDx=0;entryDy=0;" parent="1" source="PvBHLQsCNpEfYuZkWa_C-11" target="PvBHLQsCNpEfYuZkWa_C-55" edge="1">
          <mxGeometry relative="1" as="geometry" />
        </mxCell>
        <mxCell id="PvBHLQsCNpEfYuZkWa_C-60" value="+show_guests()" style="text;html=1;align=center;verticalAlign=middle;resizable=0;points=[];autosize=1;strokeColor=none;fillColor=none;" parent="1" vertex="1">
          <mxGeometry x="390" y="740" width="110" height="30" as="geometry" />
        </mxCell>
        <mxCell id="PvBHLQsCNpEfYuZkWa_C-61" style="edgeStyle=orthogonalEdgeStyle;rounded=0;orthogonalLoop=1;jettySize=auto;html=1;exitX=0.25;exitY=1;exitDx=0;exitDy=0;entryX=0;entryY=0.5;entryDx=0;entryDy=0;" parent="1" source="PvBHLQsCNpEfYuZkWa_C-46" target="PvBHLQsCNpEfYuZkWa_C-57" edge="1">
          <mxGeometry relative="1" as="geometry" />
        </mxCell>
        <mxCell id="PvBHLQsCNpEfYuZkWa_C-62" value="-ticket_id" style="text;html=1;align=center;verticalAlign=middle;resizable=0;points=[];autosize=1;strokeColor=none;fillColor=none;" parent="1" vertex="1">
          <mxGeometry x="120" y="810" width="70" height="30" as="geometry" />
        </mxCell>
        <mxCell id="PvBHLQsCNpEfYuZkWa_C-65" value="&lt;font style=&quot;font-size: 15px;&quot;&gt;&lt;span style=&quot;background-color: rgb(230, 255, 204);&quot;&gt;attr&lt;/span&gt; - public access attribute&lt;/font&gt;&lt;div style=&quot;font-size: 15px;&quot;&gt;&lt;font style=&quot;font-size: 15px;&quot;&gt;&lt;span style=&quot;background-color: rgb(255, 204, 204);&quot;&gt;attr&lt;/span&gt; - private access atribute&lt;/font&gt;&lt;/div&gt;" style="text;html=1;align=center;verticalAlign=middle;resizable=0;points=[];autosize=1;strokeColor=none;fillColor=none;" parent="1" vertex="1">
          <mxGeometry x="605" y="8" width="210" height="50" as="geometry" />
        </mxCell>
      </root>
    </mxGraphModel>
  </diagram>
</mxfile>
